<?xml version="1.0" standalone="no"?>
<!DOCTYPE svg PUBLIC "-//W3C//DTD SVG 20010904//EN"
 "http://www.w3.org/TR/2001/REC-SVG-20010904/DTD/svg10.dtd">
<svg version="1.0" xmlns="http://www.w3.org/2000/svg"
 width="180.000000pt" height="146.000000pt" viewBox="0 0 180.000000 146.000000"
 preserveAspectRatio="xMidYMid meet">

<g transform="translate(0.000000,146.000000) scale(0.100000,-0.100000)"
fill="#000000" stroke="none">
<path d="M1169 1206 c-72 -19 -137 -63 -169 -113 -76 -119 -55 -279 47 -374
28 -26 96 -65 187 -109 84 -39 150 -77 160 -91 9 -13 16 -41 16 -62 0 -128
-235 -139 -321 -14 -12 17 -24 34 -25 36 -2 2 -150 -79 -172 -95 -8 -5 59 -93
90 -119 18 -16 62 -42 97 -58 55 -26 79 -31 166 -35 76 -3 116 0 159 12 149
44 215 130 216 281 0 156 -54 220 -276 326 -175 84 -210 122 -172 192 19 36
40 46 97 47 49 0 56 -3 94 -40 22 -23 43 -39 47 -38 21 9 149 94 150 99 0 3
-13 24 -28 45 -74 101 -226 147 -363 110z"/>
<path d="M567 1204 c-4 -4 -7 -180 -7 -391 0 -321 -2 -389 -15 -413 -17 -32
-40 -43 -97 -42 -48 1 -83 22 -110 68 -11 19 -22 34 -25 34 -3 0 -43 -23 -89
-51 l-83 -51 16 -27 c33 -52 97 -110 147 -132 61 -27 199 -37 263 -20 68 18
135 70 166 127 41 78 48 166 45 554 l-3 345 -101 3 c-55 1 -103 0 -107 -4z"/>
</g>
</svg>
