<svg width="800" height="600" xmlns="http://www.w3.org/2000/svg" style="vector-effect: non-scaling-stroke;" stroke="null">
 <g stroke="null" id="Layer_1">
  <title stroke="null">Layer 1</title>
  <rect transform="rotate(-4.75062 674.6 414.7)" stroke="#000" id="svg_23" height="401.02071" width="282.92956" y="214.18964" x="533.13522" stroke-width="0" fill="#B8D078"/>
  <rect transform="rotate(27.7293 709.062 85.9925)" stroke="#000" id="svg_22" height="315.82685" width="404.2347" y="-71.92087" x="506.9448" stroke-width="0" fill="#729C62"/>
  <rect transform="rotate(-6.15546 256.214 417.526)" stroke="#000" id="svg_21" height="234.67945" width="611" y="300.18625" x="-49.28636" stroke-width="0" fill="#546433"/>
  <rect transform="rotate(-15.2285 74.7586 147.262)" stroke="#000" id="svg_19" height="358.43451" width="295.22474" y="-31.95504" x="-72.85382" stroke-width="0" fill="#153723"/>
  <path stroke="#000" fill="#46673D" d="m135.34026,381.39504l150.84807,-453.88717l150.84807,453.88717l-301.69614,0z" id="svg_1" stroke-width="0" transform="rotate(-111.527 286.188 154.451)"/>
  <path stroke="#000" fill="#153723" stroke-width="0" d="m155.23514,166.36224l102.5,-287.23389l102.5,287.23389l-204.99999,0l-0.00001,0z" id="svg_4" transform="rotate(69.581 257.735 22.7453)"/>
  <path stroke="#000" fill="#293414" stroke-width="0" d="m-112.21212,95.96779l132.71713,-93.58143l132.71744,93.58143l-50.69332,151.41858l-164.04777,0l-50.69347,-151.41858l-0.00001,0z" id="svg_6" transform="rotate(-40 20.5051 124.886)"/>
  <path stroke="#000" fill="#729C62" stroke-width="0" d="m371.82002,409.13706l54,-195.99999l180.00002,0l53.99998,195.99999l-288,0z" id="svg_8" transform="rotate(177 515.82 311.137)"/>
  <path stroke="#000" fill="#849854" stroke-width="0" d="m500.02999,131.62699l86.99997,-86.49999l86.99997,86.49999l-86.99997,86.49999l-86.99997,-86.49999z" id="svg_9" transform="rotate(23.5501 587.03 131.627)"/>
  <path stroke="#000" style="vector-effect: non-scaling-stroke;" fill="#B8D078" stroke-width="0" d="m547.74185,197.04503l251.27537,-82.08834l251.27537,82.08834l-502.55074,0z" id="svg_11" transform="rotate(-3.21256 799.017 156.001)"/>
  <path stroke="#000" fill="#546433" stroke-width="0" d="m464.0281,82.50674l0,-211.7295l123.00001,211.7295l-123.00001,0z" id="svg_13" transform="rotate(-21.2161 525.528 -23.358)"/>
  <path stroke="#000" style="vector-effect: non-scaling-stroke;" transform="rotate(-108.341 269.822 397.137)" id="svg_5" d="m132.822,545.13709l137.00001,-295.99997l137.00001,295.99997l-274.00002,0z" stroke-width="0" fill="#46673D"/>
  <path stroke="#000" style="vector-effect: non-scaling-stroke;" transform="rotate(66.8243 246.783 272.528)" id="svg_7" d="m151.64601,403.31693l95.13681,-261.578l95.13681,261.578l-190.27361,0z" stroke-width="0" fill="#1F361B"/>
  <path transform="rotate(6.5 324.931 556.899)" stroke="#000" id="svg_12" d="m-189.70242,556.89873l220.55699,-91.19185l588.15193,0l220.55692,91.19185l-220.55692,91.19185l-588.15193,0l-220.55699,-91.19185z" stroke-width="0" fill="#729C62"/>
  <path id="svg_15" d="m-24.4,232.2c12,8 -8,-168 12,6" opacity="NaN" stroke-width="0" stroke="#000" fill="#729C62"/>
  <path transform="rotate(-9.50157 677.302 331.237)" id="svg_17" d="m572.30209,461.23714l104.99998,-260.00001l104.99998,260.00001l-209.99997,0z" stroke-width="0" stroke="#000" fill="#D1FFB4"/>
 </g>

</svg>